<?xml version="1.0" standalone="no"?>
<!DOCTYPE svg PUBLIC "-//W3C//DTD SVG 20010904//EN"
 "http://www.w3.org/TR/2001/REC-SVG-20010904/DTD/svg10.dtd">
<svg version="1.0" xmlns="http://www.w3.org/2000/svg"
 width="1080.000000pt" height="1080.000000pt" viewBox="0 0 1080.000000 1080.000000"
 preserveAspectRatio="xMidYMid meet">

<g transform="translate(0.000000,1080.000000) scale(0.100000,-0.100000)"
fill="#000000" stroke="none">
<path d="M0 5400 l0 -5400 5400 0 5400 0 0 5400 0 5400 -5400 0 -5400 0 0
-5400z m5586 2621 c5 -6 56 -12 114 -14 133 -7 239 -20 267 -35 12 -7 37 -12
55 -12 18 -1 116 -29 218 -63 248 -84 588 -258 755 -385 22 -17 60 -46 84 -64
63 -48 309 -287 337 -328 29 -41 75 -105 103 -140 139 -174 410 -734 411 -848
0 -13 5 -33 12 -45 25 -46 45 -178 56 -362 4 -66 13 -133 20 -148 16 -37 16
-227 0 -264 -7 -15 -15 -77 -19 -138 -11 -153 -37 -317 -56 -348 -4 -6 -10
-29 -14 -52 -10 -60 -67 -221 -105 -297 -19 -37 -34 -73 -34 -79 0 -16 -59
-137 -71 -144 -5 -4 -23 -34 -40 -68 -17 -34 -52 -93 -77 -132 -25 -38 -57
-88 -71 -110 -13 -22 -48 -65 -77 -95 -28 -30 -58 -67 -65 -81 -13 -24 -208
-213 -326 -315 -27 -23 -86 -67 -133 -97 -47 -31 -96 -65 -110 -75 -14 -10
-55 -33 -92 -50 -37 -18 -69 -36 -72 -41 -8 -12 -122 -71 -139 -71 -7 0 -42
-14 -78 -31 -62 -30 -237 -92 -309 -109 -19 -5 -62 -16 -95 -26 -60 -16 -111
-25 -261 -43 -44 -6 -93 -15 -108 -21 -39 -15 -431 -13 -459 2 -12 6 -62 15
-112 20 -49 4 -112 12 -140 17 -122 22 -173 33 -215 48 -335 117 -355 125
-462 179 -66 33 -98 44 -117 40 -31 -7 -291 -90 -696 -221 -725 -235 -685
-225 -685 -180 0 14 4 33 9 43 9 16 81 231 121 357 22 73 158 472 169 500 5
11 15 40 22 65 7 25 23 66 36 92 13 26 23 54 23 63 0 8 4 23 9 33 5 9 21 53
35 97 l27 79 -20 26 c-25 30 -129 237 -152 300 -9 25 -31 83 -49 130 -58 153
-96 295 -109 406 -4 39 -12 77 -17 85 -31 49 -32 698 -1 746 7 11 19 83 33
208 3 22 9 49 14 60 20 49 40 112 40 128 0 10 10 39 23 65 13 26 29 67 36 92
15 52 151 336 190 395 14 22 33 54 41 70 30 61 100 159 171 238 25 29 50 59
55 69 16 28 202 215 236 236 18 11 49 37 68 57 31 33 147 117 234 169 17 10
49 31 71 46 44 29 288 153 326 165 13 4 42 16 64 26 58 26 243 90 290 99 108
23 137 30 147 36 16 10 131 25 255 32 61 4 115 10 119 15 11 10 278 9 290 -2z"/>
<path d="M5225 7601 c-6 -5 -41 -12 -80 -14 -106 -8 -184 -22 -245 -46 -30
-11 -64 -21 -75 -21 -25 0 -95 -24 -146 -50 -21 -11 -45 -20 -52 -20 -16 0
-241 -113 -297 -149 -64 -41 -184 -121 -220 -147 -48 -34 -346 -330 -376 -374
-14 -19 -42 -60 -64 -90 -22 -30 -47 -71 -56 -90 -10 -19 -25 -44 -35 -55 -20
-24 -149 -278 -149 -294 0 -7 -10 -31 -21 -54 -25 -47 -38 -85 -49 -142 -5
-22 -16 -67 -25 -100 -43 -157 -57 -277 -57 -500 0 -378 59 -624 224 -945 47
-91 106 -196 132 -235 41 -60 46 -74 41 -105 -6 -36 -104 -328 -144 -430 -55
-138 -90 -244 -98 -297 -6 -37 6 -41 67 -22 19 6 53 15 75 19 22 5 130 38 240
75 310 104 411 135 435 135 12 0 34 -8 48 -19 15 -10 59 -35 97 -55 39 -20 81
-43 95 -50 86 -47 311 -136 342 -136 9 0 19 -4 22 -9 3 -5 23 -11 43 -14 21
-3 65 -13 98 -22 33 -10 96 -22 140 -27 119 -14 506 -21 530 -9 11 6 49 12 85
14 69 4 279 53 335 78 11 5 47 17 81 28 63 20 381 177 424 210 14 11 63 44
110 74 62 40 133 104 263 234 98 99 186 191 195 205 37 56 96 145 122 183 41
59 190 362 190 384 0 11 4 22 9 25 5 3 11 18 14 33 3 16 13 48 22 73 25 64 50
192 64 320 4 41 13 85 19 97 16 30 16 346 0 376 -6 12 -15 58 -20 102 -12 120
-22 174 -56 305 -5 19 -13 44 -19 55 -6 11 -16 36 -23 55 -7 19 -19 53 -27 75
-48 136 -212 423 -284 500 -16 17 -29 37 -29 44 0 19 -306 327 -365 367 -108
74 -177 121 -233 155 -63 41 -276 149 -292 149 -5 0 -33 11 -62 24 -29 13 -73
29 -98 35 -25 7 -81 23 -125 36 -82 25 -102 29 -240 46 -111 15 -488 22 -500
10z m-580 -901 c3 -5 30 -10 60 -10 83 0 99 -18 171 -188 8 -18 14 -39 14 -48
0 -8 11 -36 24 -62 13 -26 31 -70 39 -98 8 -28 22 -65 31 -82 31 -60 50 -128
50 -182 0 -65 -24 -108 -104 -185 -52 -51 -130 -155 -130 -175 0 -14 53 -116
87 -166 15 -23 49 -73 75 -111 52 -77 247 -280 318 -330 25 -18 79 -55 120
-82 41 -27 89 -59 105 -70 59 -40 245 -131 267 -131 21 0 183 157 268 260 50
61 88 77 142 60 64 -20 465 -223 528 -268 l55 -38 3 -77 c2 -60 -2 -91 -22
-149 -33 -99 -64 -169 -84 -192 -38 -41 -243 -156 -279 -156 -7 0 -21 -4 -31
-9 -48 -25 -104 -32 -222 -28 -69 2 -145 9 -170 15 -81 18 -257 80 -319 111
-33 17 -65 31 -71 31 -16 0 -272 129 -293 148 -9 8 -25 20 -36 26 -113 67
-169 113 -339 281 -107 105 -204 206 -217 225 -13 19 -37 50 -54 68 -17 18
-31 37 -31 42 0 4 -16 25 -35 46 -19 22 -35 42 -35 46 0 4 -13 23 -30 41 -75
86 -260 386 -260 422 0 9 -10 35 -22 58 -12 23 -25 61 -30 85 -4 23 -13 63
-19 90 -16 67 -23 252 -10 265 6 6 11 27 11 46 1 65 47 182 109 273 48 71 175
188 204 188 14 0 29 5 32 10 3 6 33 10 65 10 32 0 62 -4 65 -10z"/>
</g>
</svg>
